<svg xmlns="http://www.w3.org/2000/svg" viewBox="0 0 400 400" width="100%" height="100%">
  <defs>
    <linearGradient id="bgGrad" x1="30%" y1="0%" x2="70%" y2="100%">
      <stop offset="0%" stop-color="#389DE4" />
      <stop offset="100%" stop-color="#0E4394" />
    </linearGradient>

    <linearGradient id="fgGrad" x1="0%" y1="0%" x2="20%" y2="100%">
      <stop offset="0%" stop-color="#60C5F9" />
      <stop offset="100%" stop-color="#236DD6" />
    </linearGradient>
  </defs>

  <rect width="400" height="400" rx="76" fill="#ffffff" />

  <g transform="translate(-93 38) scale(1.408)">
    <path
      fill="url(#bgGrad)"
      d="M 230 92.34
         A 65 65 0 1 0 240 198
         L 220 172
         A 30 30 0 1 1 230 150
         Z"
    />

    <path
      fill="url(#fgGrad)"
      d="M 230 24
         L 265 -1
         L 265 150
         A 65 65 0 0 1 180 212
         C 170 200, 175 185, 190 178.3
         A 30 30 0 0 0 230 150
         L 230 24
         Z"
    />
  </g>
</svg>
